<?xml version="1.0" standalone="no"?>
<!DOCTYPE svg PUBLIC "-//W3C//DTD SVG 20010904//EN"
 "http://www.w3.org/TR/2001/REC-SVG-20010904/DTD/svg10.dtd">
<svg version="1.0" xmlns="http://www.w3.org/2000/svg"
 width="316.000000pt" height="284.000000pt" viewBox="0 0 316.000000 284.000000"
 preserveAspectRatio="xMidYMid meet">
<metadata>
Created by potrace 1.15, written by Peter Selinger 2001-2017
</metadata>
<g transform="translate(0.000000,284.000000) scale(0.100000,-0.100000)"
fill="#000000" stroke="none">
<path d="M1614 2590 c-12 -5 -29 -19 -38 -31 -10 -15 -31 -25 -58 -30 l-43 -6
47 -2 c42 -1 47 -4 57 -32 10 -30 7 -38 -74 -161 -47 -71 -89 -128 -93 -126
-28 12 -232 125 -252 139 -20 14 -26 25 -25 54 1 30 -3 38 -22 46 -40 15 -103
11 -103 -6 0 -8 -4 -15 -10 -15 -5 0 -10 -9 -10 -20 0 -11 -10 -30 -21 -41
l-22 -22 26 5 c20 4 30 -1 42 -18 13 -20 14 -61 8 -299 -4 -179 -10 -278 -17
-284 -13 -10 -291 -163 -394 -216 -71 -36 -74 -37 -110 -23 -33 13 -37 17 -35
49 4 84 43 229 88 327 19 41 21 42 67 42 41 0 49 4 69 31 19 28 20 33 8 57 -8
15 -18 30 -24 34 -5 4 -4 16 3 30 19 34 129 149 187 194 28 22 52 42 55 45 3
3 12 9 20 12 13 5 13 6 -1 6 -32 2 -199 -147 -276 -246 -16 -21 -34 -33 -49
-33 -32 0 -58 -41 -52 -82 3 -20 -1 -44 -12 -63 -15 -26 -55 -142 -80 -230 -5
-16 -12 -58 -16 -92 -5 -46 -13 -70 -30 -88 -31 -34 -31 -75 0 -104 18 -17 26
-38 31 -84 4 -34 11 -75 16 -92 25 -86 64 -194 80 -222 15 -26 16 -37 6 -63
-17 -45 6 -83 55 -91 25 -4 45 -16 65 -40 57 -70 182 -185 236 -219 52 -32 57
-38 57 -71 0 -22 7 -42 18 -52 21 -19 87 -23 98 -6 4 6 24 9 48 7 22 -3 34 -3
25 -1 -25 6 -50 38 -44 55 3 8 56 41 118 73 62 32 171 89 242 127 l130 69 40
-20 c22 -11 74 -39 115 -61 41 -23 120 -66 175 -95 55 -29 119 -63 143 -76 47
-25 53 -43 20 -54 -59 -20 -64 -23 -45 -24 10 -1 27 4 38 10 16 8 27 5 55 -11
26 -17 43 -20 69 -16 42 8 58 34 49 80 -5 30 -2 36 23 52 73 46 273 234 273
256 0 5 9 8 20 8 11 0 20 -4 20 -10 0 -17 30 -11 61 11 36 25 40 78 8 107
l-20 19 27 59 c50 108 75 189 88 286 6 42 11 48 39 59 30 10 57 46 57 75 0 23
-42 66 -61 61 -11 -3 -19 -4 -20 -4 0 1 -7 43 -15 92 -24 146 -26 155 -35 161
-5 3 -9 14 -9 25 0 10 -4 27 -9 37 -35 69 -40 90 -26 108 8 11 15 34 15 52 0
44 -30 72 -77 72 -32 0 -42 6 -61 34 -34 49 -179 192 -234 229 -42 28 -48 36
-48 69 0 39 -24 78 -48 78 -8 0 -30 -8 -49 -17 -30 -14 -40 -15 -67 -4 -17 7
-42 15 -56 17 -14 2 -18 1 -10 -2 59 -23 100 -49 100 -65 0 -18 -21 -32 -155
-104 -38 -20 -74 -41 -79 -46 -6 -5 -20 -9 -31 -9 -17 0 -39 30 -104 138 -79
133 -81 137 -62 153 19 15 18 17 -14 52 -34 37 -53 43 -91 27z m130 -272 c75
-125 78 -132 60 -145 -31 -24 -152 -83 -169 -83 -15 0 -140 63 -159 80 -9 9
163 278 179 279 6 0 45 -59 89 -131z m-638 -7 c8 -8 201 -111 251 -135 13 -6
23 -18 22 -26 0 -8 -44 -82 -98 -165 -87 -134 -103 -153 -149 -178 l-52 -28 0
270 c0 149 4 271 8 271 4 0 12 -4 18 -9z m1196 2 c2 -5 28 -28 58 -53 56 -45
179 -174 206 -216 12 -17 12 -27 3 -48 -20 -43 5 -78 73 -99 20 -7 40 -50 63
-132 10 -33 21 -68 26 -77 5 -10 9 -36 9 -57 0 -22 5 -43 10 -46 13 -8 13 -82
0 -90 -9 -5 -107 43 -268 131 -24 13 -90 49 -147 80 l-105 56 0 273 c0 252 1
274 18 278 28 8 50 7 54 0z m-136 -511 c-3 -2 -19 4 -37 14 -22 13 -59 65
-125 174 -52 85 -93 161 -92 168 3 15 8 18 153 97 l100 55 3 -252 c1 -138 0
-253 -2 -256z m-241 217 c36 -61 64 -114 61 -117 -3 -3 -30 8 -58 23 -29 16
-89 48 -133 71 -44 24 -81 50 -83 58 -2 9 1 16 6 16 6 0 36 15 68 33 33 19 62
32 66 30 3 -1 36 -53 73 -114z m-412 70 c31 -17 57 -34 57 -38 0 -4 -19 -17
-42 -30 -24 -12 -85 -45 -136 -73 -52 -27 -95 -48 -97 -46 -7 7 137 218 149
218 7 0 38 -14 69 -31z m301 -161 c236 -126 239 -128 253 -147 6 -9 32 -50 57
-92 l46 -77 0 -238 0 -239 -103 -54 c-56 -29 -143 -75 -194 -102 l-91 -49
-173 0 -172 0 -91 49 c-50 27 -127 68 -171 91 -44 24 -86 47 -93 53 -10 8 -12
59 -10 231 l3 221 70 108 c40 62 83 116 100 126 29 18 87 49 270 146 50 26 94
52 100 56 5 5 13 9 19 9 5 0 86 -41 180 -92z m503 -270 c43 -23 146 -78 228
-123 112 -60 151 -85 153 -101 2 -17 -17 -31 -120 -85 -68 -35 -128 -65 -134
-67 -6 -2 -34 34 -61 80 -28 46 -73 121 -102 167 -41 67 -51 93 -51 128 0 23
2 43 5 43 2 0 39 -19 82 -42z m-1299 -30 c-4 -47 -16 -70 -106 -205 -103 -154
-109 -160 -147 -133 -5 4 -55 31 -110 60 -55 29 -104 57 -110 62 -13 12 -31 1
390 230 39 21 74 38 79 38 5 0 6 -24 4 -52z m1292 -248 c39 -66 69 -124 65
-130 -4 -6 -30 -23 -58 -38 -96 -50 -87 -63 -87 123 0 91 2 165 4 165 2 0 36
-54 76 -120z m-1295 -137 c-4 -40 -11 -73 -16 -73 -10 0 -118 57 -132 69 -7 7
95 175 130 214 17 19 18 17 21 -59 2 -44 0 -112 -3 -151z m-382 61 c78 -42
143 -78 145 -79 8 -7 -171 -266 -182 -262 -9 3 -48 74 -77 142 -10 24 -29 97
-35 140 -3 17 -10 47 -16 67 -8 29 -8 41 2 53 7 8 14 15 17 15 2 0 68 -34 146
-76z m2119 36 c-2 -14 -6 -45 -9 -70 -3 -25 -9 -49 -14 -54 -5 -6 -9 -19 -9
-30 -1 -38 -69 -208 -88 -220 -5 -3 -22 18 -39 47 -16 29 -51 87 -78 130 -42
67 -46 80 -34 92 23 23 243 135 259 132 10 -2 14 -11 12 -27z m-256 -265 c40
-66 73 -126 74 -132 0 -10 -41 -13 -170 -13 l-171 0 3 91 3 90 80 44 c44 24
86 43 94 42 7 -1 46 -56 87 -122z m-1571 72 l80 -43 3 -87 3 -87 -159 0 c-123
0 -162 3 -171 14 -9 10 5 39 65 130 42 64 81 116 88 116 6 0 47 -20 91 -43z
m1245 -142 l0 -75 -132 0 c-81 0 -128 4 -123 9 6 5 60 35 120 67 61 31 114 61
120 65 15 14 15 13 15 -66z m-978 -1 c57 -31 107 -60 113 -65 6 -6 -37 -9
-115 -7 l-125 3 0 62 c0 43 4 63 12 63 7 0 59 -25 115 -56z m-182 -284 l0
-160 -27 0 c-14 0 -42 12 -62 27 -20 15 -45 34 -56 43 -11 8 -57 52 -102 97
-138 140 -131 152 90 153 l157 0 0 -160z m470 130 c33 -17 60 -34 60 -38 0 -9
-5 -12 -273 -151 -107 -56 -197 -98 -200 -94 -9 8 -9 298 0 306 3 4 84 7 180
7 173 0 174 0 233 -30z m690 -129 c0 -99 -4 -162 -10 -166 -16 -10 -492 247
-480 259 5 5 31 22 57 37 47 27 50 27 241 28 l192 1 0 -159z m377 143 c8 -23
-13 -57 -82 -129 -66 -70 -199 -175 -221 -175 -11 0 -14 30 -14 160 l0 160
155 0 c132 0 157 -2 162 -16z"/>
<path d="M1564 395 c-4 -9 -20 -16 -43 -16 -21 -1 -27 -3 -14 -6 11 -2 33 -22
47 -44 23 -34 31 -39 66 -39 31 0 43 5 57 26 10 14 26 34 36 45 16 18 16 19
-7 19 -13 0 -26 7 -30 15 -4 11 -20 15 -56 15 -36 0 -52 -4 -56 -15z"/>
</g>
</svg>
